# xmcd
#
# Track frame offsets:
#	150
#	13695
#	25255
#	39400
#	54745
#	64700
#	75897
#	89945
#	103612
#	131720
#	147242
#	161330
#	178247
#
# Disc length: 2619
#
# Revision: 3
# Processed by: cddbd v1.5.1PL0 Copyright (c) Steve Scherf et al.
# Submitted via: EasyCDDAExtractor 5.0.5.1
# Normalized: r2:DSETVAR1
#
DISCID=ac0a390d
DTITLE=Various Artist - The Blues Collection-Disk 8
DYEAR=1996
DGENRE=Blues
TTITLE0=John Lee Hooker - She Loves Me
TTITLE1=Bo Diddley - Rockin' Bo
TTITLE2=Ray Charles - Baby Let Me Hold Your Hand
TTITLE3=Gatemouth Moore - Everybody Has Their Turn
TTITLE4=John Lee Hooker - Run On
TTITLE5=Ray Charles - A Sentimental Blues
TTITLE6=Amos Milbourne - One Bourbon, One Scotch, One Beer
TTITLE7=Elmore James - Standing At The Crossroads
TTITLE8=Johnny Otis - Waitin'
TTITLE9=Charles brown - Counting My Tears
TTITLE10=Joe Liggins - I've Got A Right To Cry
TTITLE11=Amos Milbourne - Evening Shadows Coming Down
TTITLE12=Charles Brown - Driftin' Blues
EXTD=
EXTT0=
EXTT1=
EXTT2=
EXTT3=
EXTT4=
EXTT5=
EXTT6=
EXTT7=
EXTT8=
EXTT9=
EXTT10=
EXTT11=
EXTT12=
PLAYORDER=
